<svg height="661.0169" viewBox="-5 -5 29.5 19.5" width="999.99994" xmlns="http://www.w3.org/2000/svg">
<g>
<g>
<path d="M1,9.5 L0,9 L0,1 L1,0.5 L1,9.5" fill="rgb(255,255,255)" stroke="rgb(255,255,255)" stroke-linecap="round" stroke-linejoin="round" stroke-width="0.22"/>
<path d="M9,0.5 L9,9.5 L10,9 L10,1 L9,0.5" fill="rgb(255,255,255)" stroke="rgb(255,255,255)" stroke-linecap="round" stroke-linejoin="round" stroke-width="0.22"/>
<path d="M1,5 L9,5" fill="none" stroke="rgb(255,255,255)" stroke-linecap="round" stroke-linejoin="round" stroke-width="0.22"/>
<path d="M1,9 L9,9" fill="none" stroke="rgb(255,255,255)" stroke-linecap="round" stroke-linejoin="round" stroke-width="0.22"/>
<path d="M7,4 L3,6" fill="none" stroke="rgb(255,255,255)" stroke-linecap="round" stroke-linejoin="round" stroke-width="0.22"/>
<path d="M1,0.5 L9,0.5" fill="none" stroke="rgb(255,255,255)" stroke-linecap="round" stroke-linejoin="round" stroke-width="0.22"/>
</g>
<g>
<path d="M10,5 C10,5,10.5,5,11,5 C14.25,5,14,7,16.25,7 C19.5,7,19.25,3,17.5,3 C15.75,3,15.75,4.25,15.75,4.25" fill="none" stroke="rgb(255,255,255)" stroke-linecap="round" stroke-linejoin="round" stroke-width="0.22"/>
</g>
</g>
<!-- rendered by graphemy -->
<!-- input text: źi -->
</svg>